<svg width="45" height="44" viewBox="0 0 45 44" fill="none" xmlns="http://www.w3.org/2000/svg">
<path d="M28.4219 9.42857C28.4219 11.9292 27.4286 14.3274 25.6604 16.0956C23.8922 17.8638 21.494 18.8571 18.9934 18.8571C16.4928 18.8571 14.0946 17.8638 12.3264 16.0956C10.5582 14.3274 9.5648 11.9292 9.5648 9.42857C9.5648 6.92796 10.5582 4.52977 12.3264 2.76156C14.0946 0.993365 16.4928 0 18.9934 0C21.494 0 23.8922 0.993365 25.6604 2.76156C27.4286 4.52977 28.4219 6.92796 28.4219 9.42857ZM18.9934 15.7143C20.6604 15.7143 22.2592 15.052 23.438 13.8732C24.6168 12.6944 25.2791 11.0956 25.2791 9.42857C25.2791 7.7615 24.6168 6.1627 23.438 4.9839C22.2592 3.8051 20.6604 3.14286 18.9934 3.14286C17.3263 3.14286 15.7275 3.8051 14.5487 4.9839C13.3699 6.1627 12.7077 7.7615 12.7077 9.42857C12.7077 11.0956 13.3699 12.6944 14.5487 13.8732C15.7275 15.052 17.3263 15.7143 18.9934 15.7143ZM19.7979 37.7143C19.4381 36.6935 19.1966 35.6347 19.0782 34.5589H3.27909C3.28223 33.7857 3.76309 31.46 5.89394 29.3291C7.94309 27.28 11.7994 25.1429 18.9934 25.1429C19.8105 25.1429 20.5858 25.169 21.3191 25.2214C22.0294 24.1497 22.8779 23.1786 23.8459 22.3363C22.3793 22.1163 20.7618 22.0042 18.9934 22C3.27909 22 0.13623 31.4286 0.13623 34.5714C0.13623 37.7143 3.27909 37.7143 3.27909 37.7143H19.7979Z" fill="#F2F2F2"/>
<path d="M33.1362 44C36.0536 44 38.8515 42.8411 40.9144 40.7782C42.9773 38.7153 44.1362 35.9174 44.1362 33C44.1362 30.0826 42.9773 27.2847 40.9144 25.2218C38.8515 23.1589 36.0536 22 33.1362 22C30.2188 22 27.421 23.1589 25.3581 25.2218C23.2952 27.2847 22.1362 30.0826 22.1362 33C22.1362 35.9174 23.2952 38.7153 25.3581 40.7782C27.421 42.8411 30.2188 44 33.1362 44ZM31.1059 28.7446L33.1362 30.778L35.1665 28.7446C35.4616 28.4495 35.8618 28.2837 36.2791 28.2837C36.6964 28.2837 37.0966 28.4495 37.3917 28.7446C37.6867 29.0396 37.8525 29.4398 37.8525 29.8571C37.8525 30.2744 37.6867 30.6746 37.3917 30.9697L35.3582 33L37.3917 35.0303C37.6867 35.3254 37.8525 35.7256 37.8525 36.1429C37.8525 36.5602 37.6867 36.9604 37.3917 37.2554C37.0966 37.5505 36.6964 37.7163 36.2791 37.7163C35.8618 37.7163 35.4616 37.5505 35.1665 37.2554L33.1362 35.222L31.1059 37.2554C30.8109 37.5505 30.4107 37.7163 29.9934 37.7163C29.5761 37.7163 29.1759 37.5505 28.8808 37.2554C28.5857 36.9604 28.42 36.5602 28.42 36.1429C28.42 35.7256 28.5857 35.3254 28.8808 35.0303L30.9142 33L28.8808 30.9697C28.5857 30.6746 28.42 30.2744 28.42 29.8571C28.42 29.4398 28.5857 29.0396 28.8808 28.7446C29.1759 28.4495 29.5761 28.2837 29.9934 28.2837C30.4107 28.2837 30.8109 28.4495 31.1059 28.7446Z" fill="#F2F2F2"/>
</svg>
