<svg width="23" height="25" viewBox="0 0 23 25" fill="none" xmlns="http://www.w3.org/2000/svg">
<path d="M19.9583 21.9583H3.04167V8.66658H19.9583M16.3333 0.208252V2.62492H6.66667V0.208252H4.25V2.62492H3.04167C1.70042 2.62492 0.625 3.70034 0.625 5.04158V21.9583C0.625 22.5992 0.879612 23.2139 1.33283 23.6671C1.78604 24.1203 2.40073 24.3749 3.04167 24.3749H19.9583C20.5993 24.3749 21.214 24.1203 21.6672 23.6671C22.1204 23.2139 22.375 22.5992 22.375 21.9583V5.04158C22.375 4.40065 22.1204 3.78596 21.6672 3.33274C21.214 2.87953 20.5993 2.62492 19.9583 2.62492H18.75V0.208252M17.5417 13.4999H11.5V19.5416H17.5417V13.4999Z" fill="#999999"/>
</svg>
