<svg width="23" height="25" viewBox="0 0 23 25" fill="none" xmlns="http://www.w3.org/2000/svg">
<path d="M15.5414 2.40559C14.5152 1.29764 13.0818 0.6875 11.4998 0.6875C9.90934 0.6875 8.47128 1.29395 7.44981 2.39504C6.41727 3.50826 5.91419 5.02121 6.03231 6.65492C6.26645 9.87805 8.71913 12.5 11.4998 12.5C14.2805 12.5 16.729 9.87857 16.9668 6.65598C17.0865 5.03703 16.5802 3.52725 15.5414 2.40559ZM20.7811 24.3125H2.21856C1.9756 24.3157 1.73498 24.2646 1.51422 24.1631C1.29347 24.0616 1.09812 23.9121 0.942391 23.7256C0.599618 23.3158 0.461454 22.7563 0.563759 22.1905C1.00884 19.7214 2.39786 17.6474 4.58106 16.1914C6.52063 14.8989 8.97753 14.1875 11.4998 14.1875C14.0221 14.1875 16.479 14.8994 18.4186 16.1914C20.6018 17.6469 21.9908 19.7209 22.4359 22.1899C22.5382 22.7558 22.4 23.3153 22.0572 23.725C21.9016 23.9117 21.7062 24.0612 21.4855 24.1628C21.2647 24.2645 21.0241 24.3156 20.7811 24.3125Z" fill="#999999"/>
</svg>
