<svg width="41" height="40" viewBox="0 0 41 40" fill="none" xmlns="http://www.w3.org/2000/svg">
<path d="M6.5 12C6.5 10.4087 7.13214 8.88258 8.25736 7.75736C9.38258 6.63214 10.9087 6 12.5 6H28.5C30.0913 6 31.6174 6.63214 32.7426 7.75736C33.8679 8.88258 34.5 10.4087 34.5 12V18.802C33.5877 18.2753 32.5529 17.9981 31.4995 17.9982C30.4462 17.9982 29.4114 18.2756 28.4992 18.8025C27.587 19.3293 26.8296 20.087 26.3032 20.9994C25.7767 21.9117 25.4997 22.9466 25.5 24H22.5C22.2348 24 21.9804 24.1054 21.7929 24.2929C21.6054 24.4804 21.5 24.7348 21.5 25C21.5 25.2652 21.6054 25.5196 21.7929 25.7071C21.9804 25.8946 22.2348 26 22.5 26H25.84C26.1048 26.7463 26.5146 27.4328 27.046 28.02C25.8036 28.1333 24.6483 28.707 23.8072 29.6284C22.9661 30.5498 22.4998 31.7524 22.5 33C22.5 33.334 22.526 33.668 22.576 34H12.5C10.9087 34 9.38258 33.3679 8.25736 32.2426C7.13214 31.1174 6.5 29.5913 6.5 28V12ZM19.208 14.208C19.3958 14.0202 19.5013 13.7656 19.5013 13.5C19.5013 13.2344 19.3958 12.9798 19.208 12.792C19.0202 12.6042 18.7656 12.4987 18.5 12.4987C18.2344 12.4987 17.9798 12.6042 17.792 12.792L14.968 15.616L14.174 14.892C13.9767 14.7234 13.7216 14.6381 13.4626 14.6541C13.2035 14.6701 12.9609 14.7862 12.7859 14.9778C12.6109 15.1694 12.5172 15.4216 12.5247 15.681C12.5322 15.9404 12.6402 16.1868 12.826 16.368L14.326 17.738C14.5161 17.911 14.7654 18.0043 15.0224 17.9983C15.2794 17.9923 15.5242 17.8877 15.706 17.706L19.208 14.208ZM19.208 22.792C19.1151 22.6989 19.0048 22.625 18.8833 22.5746C18.7618 22.5242 18.6315 22.4982 18.5 22.4982C18.3685 22.4982 18.2382 22.5242 18.1167 22.5746C17.9952 22.625 17.8849 22.6989 17.792 22.792L14.968 25.616L14.174 24.892C13.9767 24.7234 13.7216 24.6381 13.4626 24.6541C13.2035 24.6701 12.9609 24.7862 12.7859 24.9778C12.6109 25.1694 12.5172 25.4216 12.5247 25.681C12.5322 25.9404 12.6402 26.1868 12.826 26.368L14.326 27.738C14.5158 27.9113 14.765 28.0049 15.022 27.9993C15.279 27.9937 15.5239 27.8894 15.706 27.708L19.206 24.208C19.3935 24.0205 19.4988 23.7662 19.4988 23.501C19.4988 23.2358 19.3935 22.9815 19.206 22.794M21.5 15C21.5 15.2652 21.6054 15.5196 21.7929 15.7071C21.9804 15.8946 22.2348 16 22.5 16H27.5C27.7652 16 28.0196 15.8946 28.2071 15.7071C28.3946 15.5196 28.5 15.2652 28.5 15C28.5 14.7348 28.3946 14.4804 28.2071 14.2929C28.0196 14.1054 27.7652 14 27.5 14H22.5C22.2348 14 21.9804 14.1054 21.7929 14.2929C21.6054 14.4804 21.5 14.7348 21.5 15ZM35.5 24C35.5 25.0609 35.0786 26.0783 34.3284 26.8284C33.5783 27.5786 32.5609 28 31.5 28C30.4391 28 29.4217 27.5786 28.6716 26.8284C27.9214 26.0783 27.5 25.0609 27.5 24C27.5 22.9391 27.9214 21.9217 28.6716 21.1716C29.4217 20.4214 30.4391 20 31.5 20C32.5609 20 33.5783 20.4214 34.3284 21.1716C35.0786 21.9217 35.5 22.9391 35.5 24ZM38.5 33C38.5 35.49 36.5 38 31.5 38C26.5 38 24.5 35.5 24.5 33C24.5 32.2044 24.8161 31.4413 25.3787 30.8787C25.9413 30.3161 26.7044 30 27.5 30H35.5C36.2956 30 37.0587 30.3161 37.6213 30.8787C38.1839 31.4413 38.5 32.2044 38.5 33Z" fill="#F2F2F2"/>
</svg>
