<svg width="45" height="44" viewBox="0 0 45 44" fill="none" xmlns="http://www.w3.org/2000/svg">
<path d="M39 8.25H6C5.63533 8.25 5.28559 8.39487 5.02773 8.65273C4.76987 8.91059 4.625 9.26033 4.625 9.625V33C4.625 33.7293 4.91473 34.4288 5.43046 34.9445C5.94618 35.4603 6.64565 35.75 7.375 35.75H37.625C38.3543 35.75 39.0538 35.4603 39.5695 34.9445C40.0853 34.4288 40.375 33.7293 40.375 33V9.625C40.375 9.26033 40.2301 8.91059 39.9723 8.65273C39.7144 8.39487 39.3647 8.25 39 8.25ZM7.375 19.25H14.25V24.75H7.375V19.25ZM17 19.25H37.625V24.75H17V19.25ZM7.375 27.5H14.25V33H7.375V27.5ZM37.625 33H17V27.5H37.625V33Z" fill="#F2F2F2"/>
</svg>
