<svg width="42" height="42" viewBox="0 0 42 42" fill="none" xmlns="http://www.w3.org/2000/svg">
<path d="M12.4582 22.7083V19.2916H36.3748V22.7083H12.4582ZM12.4582 32.9583V29.5416H36.3748V32.9583H12.4582ZM12.4582 12.4583V9.04159H36.3748V12.4583H12.4582ZM5.62484 14.1666V9.04159H3.9165V7.33325H7.33317V14.1666H5.62484ZM3.9165 29.5416V27.8333H9.0415V34.6666H3.9165V32.9583H7.33317V32.1041H5.62484V30.3958H7.33317V29.5416H3.9165ZM7.76025 17.5833C8.10006 17.5833 8.42595 17.7182 8.66623 17.9585C8.90652 18.1988 9.0415 18.5247 9.0415 18.8645C9.0415 19.2062 8.90484 19.5308 8.68275 19.7528L5.82984 22.7083H9.0415V24.4166H3.9165V22.8449L7.33317 19.2916H3.9165V17.5833H7.76025Z" fill="#F2F2F2"/>
</svg>
