<svg width="43" height="48" viewBox="0 0 43 48" fill="none" xmlns="http://www.w3.org/2000/svg">
<path d="M39.3237 4.40625H33.98V2.625C33.98 2.15258 33.7923 1.69952 33.4583 1.36547C33.1242 1.03142 32.6711 0.84375 32.1987 0.84375C31.7263 0.84375 31.2732 1.03142 30.9392 1.36547C30.6051 1.69952 30.4175 2.15258 30.4175 2.625V4.40625H12.605V2.625C12.605 2.15258 12.4173 1.69952 12.0833 1.36547C11.7492 1.03142 11.2961 0.84375 10.8237 0.84375C10.3513 0.84375 9.89825 1.03142 9.5642 1.36547C9.23015 1.69952 9.04248 2.15258 9.04248 2.625V4.40625H3.69873C2.7539 4.40625 1.84776 4.78158 1.17966 5.44968C0.511564 6.11778 0.13623 7.02392 0.13623 7.96875V43.5938C0.13623 44.5386 0.511564 45.4447 1.17966 46.1128C1.84776 46.7809 2.7539 47.1562 3.69873 47.1562H39.3237C40.2686 47.1562 41.1747 46.7809 41.8428 46.1128C42.5109 45.4447 42.8862 44.5386 42.8862 43.5938V7.96875C42.8862 7.02392 42.5109 6.11778 41.8428 5.44968C41.1747 4.78158 40.2686 4.40625 39.3237 4.40625ZM28.1152 35.2085C28.2807 35.374 28.412 35.5705 28.5016 35.7867C28.5911 36.0029 28.6372 36.2347 28.6372 36.4688C28.6372 36.7028 28.5911 36.9346 28.5016 37.1508C28.412 37.367 28.2807 37.5635 28.1152 37.729C27.9497 37.8945 27.7532 38.0258 27.537 38.1153C27.3208 38.2049 27.089 38.251 26.855 38.251C26.6209 38.251 26.3892 38.2049 26.1729 38.1153C25.9567 38.0258 25.7602 37.8945 25.5947 37.729L21.5112 33.6432L17.4277 37.729C17.2622 37.8945 17.0657 38.0258 16.8495 38.1153C16.6333 38.2049 16.4015 38.251 16.1675 38.251C15.9334 38.251 15.7017 38.2049 15.4854 38.1153C15.2692 38.0258 15.0727 37.8945 14.9072 37.729C14.7417 37.5635 14.6105 37.367 14.5209 37.1508C14.4313 36.9346 14.3852 36.7028 14.3852 36.4688C14.3852 36.2347 14.4313 36.0029 14.5209 35.7867C14.6105 35.5705 14.7417 35.374 14.9072 35.2085L18.993 31.125L14.9072 27.0415C14.573 26.7073 14.3852 26.2539 14.3852 25.7812C14.3852 25.3086 14.573 24.8552 14.9072 24.521C15.2415 24.1868 15.6948 23.999 16.1675 23.999C16.6402 23.999 17.0935 24.1868 17.4277 24.521L21.5112 28.6068L25.5947 24.521C25.7602 24.3555 25.9567 24.2242 26.1729 24.1347C26.3892 24.0451 26.6209 23.999 26.855 23.999C27.089 23.999 27.3208 24.0451 27.537 24.1347C27.7532 24.2242 27.9497 24.3555 28.1152 24.521C28.2807 24.6865 28.412 24.883 28.5016 25.0992C28.5911 25.3154 28.6372 25.5472 28.6372 25.7812C28.6372 26.0153 28.5911 26.2471 28.5016 26.4633C28.412 26.6795 28.2807 26.876 28.1152 27.0415L24.0295 31.125L28.1152 35.2085ZM39.3237 15.0938H3.69873V7.96875H9.04248V9.75C9.04248 10.2224 9.23015 10.6755 9.5642 11.0095C9.89825 11.3436 10.3513 11.5312 10.8237 11.5312C11.2961 11.5312 11.7492 11.3436 12.0833 11.0095C12.4173 10.6755 12.605 10.2224 12.605 9.75V7.96875H30.4175V9.75C30.4175 10.2224 30.6051 10.6755 30.9392 11.0095C31.2732 11.3436 31.7263 11.5312 32.1987 11.5312C32.6711 11.5312 33.1242 11.3436 33.4583 11.0095C33.7923 10.6755 33.98 10.2224 33.98 9.75V7.96875H39.3237V15.0938Z" fill="#F2F2F2"/>
</svg>
