<svg width="37" height="36" viewBox="0 0 37 36" fill="none" xmlns="http://www.w3.org/2000/svg">
<g clip-path="url(#clip0_67_5645)">
<path d="M0.5 14.3999V28.7999C0.5 29.7547 0.879285 30.6704 1.55442 31.3455C2.22955 32.0206 3.14522 32.3999 4.1 32.3999H32.9C33.8548 32.3999 34.7705 32.0206 35.4456 31.3455C36.1207 30.6704 36.5 29.7547 36.5 28.7999V14.3999L18.5 21.5999L0.5 14.3999Z" fill="#F2F2F2"/>
<path d="M4.1 3.6001C3.14522 3.6001 2.22955 3.97938 1.55442 4.65451C0.879285 5.32964 0.5 6.24532 0.5 7.2001L0.5 10.8001L18.5 18.0001L36.5 10.8001V7.2001C36.5 6.24532 36.1207 5.32964 35.4456 4.65451C34.7705 3.97938 33.8548 3.6001 32.9 3.6001H4.1Z" fill="#F2F2F2"/>
</g>
<defs>
<clipPath id="clip0_67_5645">
<rect width="36" height="36" fill="white" transform="translate(0.5)"/>
</clipPath>
</defs>
</svg>
