<svg width="39" height="38" viewBox="0 0 39 38" fill="none" xmlns="http://www.w3.org/2000/svg">
<path d="M36.125 9.49989C36.125 8.24011 35.6246 7.03193 34.7338 6.14113C33.843 5.25034 32.6348 4.74989 31.375 4.74989H30.1875V3.59579C30.1875 2.95677 29.6962 2.40829 29.0571 2.37638C28.8966 2.36864 28.7361 2.39358 28.5855 2.44969C28.4349 2.5058 28.2972 2.59191 28.1808 2.70281C28.0644 2.8137 27.9718 2.94706 27.9085 3.09482C27.8452 3.24257 27.8125 3.40164 27.8125 3.56239V4.74989H11.1875V3.59579C11.1875 2.95677 10.6962 2.40829 10.0571 2.37638C9.89659 2.36864 9.73613 2.39358 9.58549 2.44969C9.43485 2.5058 9.29718 2.59191 9.1808 2.70281C9.06443 2.8137 8.97178 2.94706 8.90847 3.09482C8.84517 3.24257 8.81251 3.40164 8.8125 3.56239V4.74989H7.625C6.36522 4.74989 5.15704 5.25034 4.26624 6.14113C3.37545 7.03193 2.875 8.24011 2.875 9.49989V10.3905C2.875 10.4693 2.90628 10.5448 2.96195 10.6004C3.01763 10.6561 3.09314 10.6874 3.17188 10.6874H35.8281C35.9069 10.6874 35.9824 10.6561 36.038 10.6004C36.0937 10.5448 36.125 10.4693 36.125 10.3905V9.49989ZM2.875 30.8749C2.875 32.1347 3.37545 33.3429 4.26624 34.2337C5.15704 35.1244 6.36522 35.6249 7.625 35.6249H31.375C32.6348 35.6249 33.843 35.1244 34.7338 34.2337C35.6246 33.3429 36.125 32.1347 36.125 30.8749V13.285C36.125 13.226 36.1015 13.1694 36.0598 13.1276C36.018 13.0859 35.9614 13.0624 35.9023 13.0624H3.09766C3.0386 13.0624 2.98197 13.0859 2.94021 13.1276C2.89846 13.1694 2.875 13.226 2.875 13.285V30.8749ZM28.4062 15.4374C28.7585 15.4374 29.1029 15.5419 29.3959 15.7376C29.6888 15.9333 29.9171 16.2115 30.0519 16.537C30.1867 16.8625 30.222 17.2206 30.1533 17.5661C30.0845 17.9117 29.9149 18.2291 29.6658 18.4782C29.4167 18.7273 29.0993 18.8969 28.7538 18.9657C28.4082 19.0344 28.0501 18.9991 27.7246 18.8643C27.3991 18.7295 27.1209 18.5012 26.9252 18.2083C26.7295 17.9153 26.625 17.5709 26.625 17.2186C26.625 16.7462 26.8127 16.2932 27.1467 15.9591C27.4808 15.6251 27.9338 15.4374 28.4062 15.4374ZM28.4062 21.3749C28.7585 21.3749 29.1029 21.4794 29.3959 21.6751C29.6888 21.8708 29.9171 22.149 30.0519 22.4745C30.1867 22.8 30.222 23.1581 30.1533 23.5036C30.0845 23.8492 29.9149 24.1666 29.6658 24.4157C29.4167 24.6648 29.0993 24.8344 28.7538 24.9032C28.4082 24.9719 28.0501 24.9366 27.7246 24.8018C27.3991 24.667 27.1209 24.4387 26.9252 24.1458C26.7295 23.8528 26.625 23.5084 26.625 23.1561C26.625 22.6837 26.8127 22.2307 27.1467 21.8966C27.4808 21.5626 27.9338 21.3749 28.4062 21.3749ZM22.4688 15.4374C22.821 15.4374 23.1654 15.5419 23.4584 15.7376C23.7513 15.9333 23.9796 16.2115 24.1144 16.537C24.2492 16.8625 24.2845 17.2206 24.2158 17.5661C24.147 17.9117 23.9774 18.2291 23.7283 18.4782C23.4792 18.7273 23.1618 18.8969 22.8163 18.9657C22.4707 19.0344 22.1126 18.9991 21.7871 18.8643C21.4616 18.7295 21.1834 18.5012 20.9877 18.2083C20.792 17.9153 20.6875 17.5709 20.6875 17.2186C20.6875 16.7462 20.8752 16.2932 21.2092 15.9591C21.5433 15.6251 21.9963 15.4374 22.4688 15.4374ZM22.4688 21.3749C22.821 21.3749 23.1654 21.4794 23.4584 21.6751C23.7513 21.8708 23.9796 22.149 24.1144 22.4745C24.2492 22.8 24.2845 23.1581 24.2158 23.5036C24.147 23.8492 23.9774 24.1666 23.7283 24.4157C23.4792 24.6648 23.1618 24.8344 22.8163 24.9032C22.4707 24.9719 22.1126 24.9366 21.7871 24.8018C21.4616 24.667 21.1834 24.4387 20.9877 24.1458C20.792 23.8528 20.6875 23.5084 20.6875 23.1561C20.6875 22.6837 20.8752 22.2307 21.2092 21.8966C21.5433 21.5626 21.9963 21.3749 22.4688 21.3749ZM22.4688 27.3124C22.821 27.3124 23.1654 27.4169 23.4584 27.6126C23.7513 27.8083 23.9796 28.0865 24.1144 28.412C24.2492 28.7375 24.2845 29.0956 24.2158 29.4411C24.147 29.7867 23.9774 30.1041 23.7283 30.3532C23.4792 30.6023 23.1618 30.7719 22.8163 30.8407C22.4707 30.9094 22.1126 30.8741 21.7871 30.7393C21.4616 30.6045 21.1834 30.3762 20.9877 30.0833C20.792 29.7903 20.6875 29.4459 20.6875 29.0936C20.6875 28.6212 20.8752 28.1682 21.2092 27.8341C21.5433 27.5001 21.9963 27.3124 22.4688 27.3124ZM16.5312 21.3749C16.8835 21.3749 17.2279 21.4794 17.5209 21.6751C17.8138 21.8708 18.0421 22.149 18.1769 22.4745C18.3117 22.8 18.347 23.1581 18.2783 23.5036C18.2095 23.8492 18.0399 24.1666 17.7908 24.4157C17.5417 24.6648 17.2243 24.8344 16.8788 24.9032C16.5332 24.9719 16.1751 24.9366 15.8496 24.8018C15.5241 24.667 15.2459 24.4387 15.0502 24.1458C14.8545 23.8528 14.75 23.5084 14.75 23.1561C14.75 22.6837 14.9377 22.2307 15.2717 21.8966C15.6058 21.5626 16.0588 21.3749 16.5312 21.3749ZM16.5312 27.3124C16.8835 27.3124 17.2279 27.4169 17.5209 27.6126C17.8138 27.8083 18.0421 28.0865 18.1769 28.412C18.3117 28.7375 18.347 29.0956 18.2783 29.4411C18.2095 29.7867 18.0399 30.1041 17.7908 30.3532C17.5417 30.6023 17.2243 30.7719 16.8788 30.8407C16.5332 30.9094 16.1751 30.8741 15.8496 30.7393C15.5241 30.6045 15.2459 30.3762 15.0502 30.0833C14.8545 29.7903 14.75 29.4459 14.75 29.0936C14.75 28.6212 14.9377 28.1682 15.2717 27.8341C15.6058 27.5001 16.0588 27.3124 16.5312 27.3124ZM10.5938 21.3749C10.946 21.3749 11.2904 21.4794 11.5834 21.6751C11.8763 21.8708 12.1046 22.149 12.2394 22.4745C12.3742 22.8 12.4095 23.1581 12.3408 23.5036C12.272 23.8492 12.1024 24.1666 11.8533 24.4157C11.6042 24.6648 11.2868 24.8344 10.9413 24.9032C10.5957 24.9719 10.2376 24.9366 9.9121 24.8018C9.58661 24.667 9.30842 24.4387 9.11269 24.1458C8.91697 23.8528 8.8125 23.5084 8.8125 23.1561C8.8125 22.6837 9.00017 22.2307 9.33422 21.8966C9.66826 21.5626 10.1213 21.3749 10.5938 21.3749ZM10.5938 27.3124C10.946 27.3124 11.2904 27.4169 11.5834 27.6126C11.8763 27.8083 12.1046 28.0865 12.2394 28.412C12.3742 28.7375 12.4095 29.0956 12.3408 29.4411C12.272 29.7867 12.1024 30.1041 11.8533 30.3532C11.6042 30.6023 11.2868 30.7719 10.9413 30.8407C10.5957 30.9094 10.2376 30.8741 9.9121 30.7393C9.58661 30.6045 9.30842 30.3762 9.11269 30.0833C8.91697 29.7903 8.8125 29.4459 8.8125 29.0936C8.8125 28.6212 9.00017 28.1682 9.33422 27.8341C9.66826 27.5001 10.1213 27.3124 10.5938 27.3124Z" fill="#F2F2F2"/>
</svg>
